<svg xmlns="http://www.w3.org/2000/svg" x="0px" y="0px"
width="30" height="30"
viewBox="0 0 50 50"
style=" fill:#ffffff;"><path d="M 16.90625 3.96875 C 16.863281 3.976563 16.820313 3.988281 16.78125 4 C 16.316406 4.105469 15.988281 4.523438 16 5 L 16 10 C 15.996094 10.359375 16.183594 10.695313 16.496094 10.878906 C 16.808594 11.058594 17.191406 11.058594 17.503906 10.878906 C 17.816406 10.695313 18.003906 10.359375 18 10 L 18 5 C 18.011719 4.710938 17.894531 4.433594 17.6875 4.238281 C 17.476563 4.039063 17.191406 3.941406 16.90625 3.96875 Z M 5.59375 8.65625 C 5.550781 8.664063 5.507813 8.675781 5.46875 8.6875 C 5.09375 8.753906 4.792969 9.027344 4.6875 9.390625 C 4.582031 9.757813 4.691406 10.148438 4.96875 10.40625 L 8.5 13.9375 C 8.898438 14.335938 9.539063 14.335938 9.9375 13.9375 C 10.335938 13.539063 10.335938 12.898438 9.9375 12.5 L 6.40625 8.96875 C 6.199219 8.746094 5.898438 8.632813 5.59375 8.65625 Z M 28.21875 8.65625 C 28.175781 8.664063 28.132813 8.675781 28.09375 8.6875 C 27.902344 8.730469 27.730469 8.828125 27.59375 8.96875 L 24.0625 12.5 C 23.664063 12.898438 23.664063 13.539063 24.0625 13.9375 C 24.460938 14.335938 25.101563 14.335938 25.5 13.9375 L 29.03125 10.40625 C 29.375 10.117188 29.484375 9.628906 29.292969 9.222656 C 29.101563 8.8125 28.664063 8.582031 28.21875 8.65625 Z M 17 13 C 12.578125 13 9 16.578125 9 21 C 9 24.066406 10.71875 26.71875 13.25 28.0625 C 14.253906 26.917969 15.527344 26.019531 17 25.5 C 17.167969 21.296875 19.515625 17.664063 22.9375 15.65625 C 21.472656 14.027344 19.363281 13 17 13 Z M 29 16 C 23.484375 16 19 20.484375 19 26 C 19 26.351563 19.023438 26.707031 19.0625 27.0625 C 15.644531 27.523438 13 30.460938 13 34 C 13 37.859375 16.140625 41 20 41 L 41 41 C 45.964844 41 50 36.964844 50 32 C 50 27.035156 45.964844 23 41 23 C 40.1875 23 39.394531 23.101563 38.625 23.3125 C 37.441406 19.007813 33.566406 16 29 16 Z M 0.8125 20 C 0.261719 20.050781 -0.144531 20.542969 -0.09375 21.09375 C -0.0429688 21.644531 0.449219 22.050781 1 22 L 6 22 C 6.359375 22.003906 6.695313 21.816406 6.878906 21.503906 C 7.058594 21.191406 7.058594 20.808594 6.878906 20.496094 C 6.695313 20.183594 6.359375 19.996094 6 20 L 1 20 C 0.96875 20 0.9375 20 0.90625 20 C 0.875 20 0.84375 20 0.8125 20 Z M 9.125 27.75 C 9.082031 27.757813 9.039063 27.769531 9 27.78125 C 8.808594 27.824219 8.636719 27.921875 8.5 28.0625 L 4.96875 31.59375 C 4.570313 31.992188 4.570313 32.632813 4.96875 33.03125 C 5.367188 33.429688 6.007813 33.429688 6.40625 33.03125 L 9.9375 29.46875 C 10.25 29.171875 10.339844 28.707031 10.15625 28.316406 C 9.96875 27.921875 9.554688 27.695313 9.125 27.75 Z"></path></svg>