<svg xmlns="http://www.w3.org/2000/svg" x="0px" y="0px"
width="50" height="50"
viewBox="0 0 50 50"
style=" fill:#ffffff;"><path d="M 25 4 C 13.972292 4 5 12.972292 5 24 C 5 35.027708 13.972292 44 25 44 C 32.766004 44 39.502746 39.551873 42.810547 33.070312 A 1.50015 1.50015 0 0 0 41.632812 30.896484 C 32.843153 29.96408 26 22.551125 26 13.5 C 26 10.888238 26.585599 8.4242842 27.615234 6.1914062 A 1.50015 1.50015 0 0 0 26.355469 4.0664062 C 25.956343 4.039542 25.505742 4 25 4 z M 24.162109 7.0839844 C 23.481271 9.1143757 23 11.238294 23 13.5 C 23 23.235424 29.84153 31.325265 38.960938 33.404297 C 35.910089 37.92811 30.878133 41 25 41 C 15.593708 41 8 33.406292 8 24 C 8 14.880797 15.155394 7.5281505 24.162109 7.0839844 z"></path></svg>