<svg xmlns="http://www.w3.org/2000/svg" x="0px" y="0px"
width="80" height="80"
viewBox="0 0 172 172"
style=" fill:#000000;"><g transform="translate(2.408,2.408) scale(0.972,0.972)"><g fill="none" fill-rule="nonzero" stroke="none" stroke-width="none" stroke-linecap="butt" stroke-linejoin="none" stroke-miterlimit="10" stroke-dasharray="" stroke-dashoffset="0" font-family="none" font-weight="none" font-size="none" text-anchor="none" style="mix-blend-mode: normal"><g fill="#ffffff" stroke="#ffffff" stroke-width="5" stroke-linejoin="round"><path d="M147.34667,117.0288c-11.352,22.3944 -34.52613,37.7712 -61.34667,37.7712c-37.9948,0 -68.8,-30.8052 -68.8,-68.8c0,-30.58733 19.98067,-56.4848 47.58667,-65.4288c-4.73,9.32813 -7.45333,19.8488 -7.45333,31.0288c0,37.9948 30.8052,68.8 68.8,68.8c7.40747,0 14.52827,-1.204 21.21333,-3.3712z"></path></g><path d="M0,172v-172h172v172z" fill="none" stroke="none" stroke-width="1" stroke-linejoin="miter"></path><g fill="#ffffff" stroke="none" stroke-width="1" stroke-linejoin="miter"><path d="M126.13333,120.4c-37.9948,0 -68.8,-30.8052 -68.8,-68.8c0,-11.18 2.72333,-21.70067 7.45333,-31.0288c-27.606,8.944 -47.58667,34.84147 -47.58667,65.4288c0,37.9948 30.8052,68.8 68.8,68.8c26.82053,0 49.99467,-15.3768 61.34667,-37.7712c-6.68507,2.1672 -13.80587,3.3712 -21.21333,3.3712z"></path></g><path d="" fill="none" stroke="none" stroke-width="1" stroke-linejoin="miter"></path><path d="" fill="none" stroke="none" stroke-width="1" stroke-linejoin="miter"></path></g></g></svg>