<svg xmlns="http://www.w3.org/2000/svg" x="0px" y="0px"
width="30" height="30"
viewBox="0 0 30 30"
style=" fill:#ffffff;"><path d="M 17.5 3 C 15.1 3 13.008812 4.3032813 11.882812 6.2382812 C 11.444813 6.0962813 10.986 6 10.5 6 C 8.17 6 6.277875 7.777875 6.046875 10.046875 C 3.777875 10.277875 2 12.17 2 14.5 C 2 16.985 4.015 19 6.5 19 L 10.851562 19 L 13.203125 13.511719 C 13.599125 12.592719 14.499094 11.998047 15.496094 11.998047 C 15.668094 11.998047 15.840859 12.016781 16.005859 12.050781 C 17.160859 12.289781 18 13.32 18 14.5 L 18 17 L 18.5 17 C 19.347 17 20.129031 17.422187 20.582031 18.117188 C 20.762031 18.388188 20.866687 18.69 20.929688 19 L 23.5 19 C 25.985 19 28 16.985 28 14.5 C 28 12.177 26.232656 10.287828 23.972656 10.048828 C 23.987656 9.8678281 24 9.685 24 9.5 C 24 5.91 21.09 3 17.5 3 z M 15.425781 14.003906 C 15.256422 14.028187 15.109562 14.139234 15.039062 14.302734 L 12.039062 21.302734 C 11.974063 21.457734 11.989031 21.634391 12.082031 21.775391 C 12.174031 21.915391 12.332 22 12.5 22 L 15 22 L 15 26.5 C 15 26.737 15.166437 26.942234 15.398438 26.990234 C 15.433437 26.997234 15.467 27 15.5 27 C 15.697 27 15.880937 26.884266 15.960938 26.697266 L 18.960938 19.697266 C 19.025937 19.542266 19.010969 19.364609 18.917969 19.224609 C 18.825969 19.083609 18.668 19 18.5 19 L 16 19 L 16 14.5 C 16 14.263 15.833563 14.057766 15.601562 14.009766 C 15.541812 13.997266 15.482234 13.995812 15.425781 14.003906 z M 5.984375 20.986328 A 1.0001 1.0001 0 0 0 5 22 L 5 23 A 1.0001 1.0001 0 1 0 7 23 L 7 22 A 1.0001 1.0001 0 0 0 5.984375 20.986328 z M 23.984375 22.986328 A 1.0001 1.0001 0 0 0 23 24 L 23 25 A 1.0001 1.0001 0 1 0 25 25 L 25 24 A 1.0001 1.0001 0 0 0 23.984375 22.986328 z"></path></svg>